# File created by Blade
# Date/Time:  Tue Jan 27 18:05:51 2015
#---------------------------------------------------------
:version 1.10
:name HOM
:units
  mass 1.0
  length 1.000000
  angle deg
:documentation
     Acclaim Skeleton File
:root
   axis xyz
   order TX TY TZ RX RY RZ
   position 0.000000 0.000000 0.000000
   orientation 0 0 0
:bonedata
   begin
      id 1
      name Spine_dum
      direction 0.000000 1.000000 0.000000
      length 5.195262
      axis 0.0 0.0 0.0 xyz
   end
   begin
      id 2
      name LeftUpLeg_dum
      direction 1.000000 0.000000 0.000000
      length 3.351363
      axis 0.0 0.0 0.0 xyz
   end
   begin
      id 3
      name RightUpLeg_dum
      direction -1.000000 0.000000 0.000000
      length 3.351363
      axis 0.0 0.0 0.0 xyz
   end
   begin
      id 4
      name Spine
      direction 0.000000 1.000000 0.000000
      length 0.000000
      axis 0.0 0.0 0.0 xyz
      dof rx ry rz
   end
   begin
      id 5
      name Spine_dum1
      direction 0.000000 1.000000 0.000000
      length 15.653875
      axis 0.0 0.0 0.0 xyz
   end
   begin
      id 6
      name Spine_dum2
      direction 0.000000 1.000000 0.000000
      length 10.329768
      axis 0.0 0.0 0.0 xyz
   end
   begin
      id 7
      name Spine_dum3
      direction 0.000000 1.000000 0.000000
      length 10.329768
      axis 0.0 0.0 0.0 xyz
   end
   begin
      id 8
      name Head
      direction 0.000000 1.000000 0.000000
      length 4.527550
      axis 0.0 0.0 0.0 xyz
      dof rx ry rz
   end
   begin
      id 9
      name LeftShoulder
      direction 1.000000 0.000000 0.000000
      length 6.996006
      axis 0.0 0.0 -90.0 xyz
      dof rx ry rz
   end
   begin
      id 10
      name LeftArm
      direction 1.000000 0.000000 0.000000
      length 10.209302
      axis 0.0 0.0 -90.0 xyz
      dof rx ry rz
   end
   begin
      id 11
      name LeftForeArm
      direction 1.000000 0.000000 0.000000
      length 8.563163
      axis 0.0 0.0 -90.0 xyz
      dof ry rz rx
   end
   begin
      id 12
      name LeftHand
      direction 0.000000 0.000000 0.000000
      length 0.000000
      axis 0.0 0.0 -90.0 xyz
      dof rx ry rz
   end
   begin
      id 13
      name LeftHand_dum1
      direction 0.000000 0.000000 0.000000
      length 0.000000
      axis 0.0 0.0 -90.0 xyz
   end
   begin
      id 14
      name LeftHand_dum2
      direction 1.000000 0.000000 0.000000
      length 3.937000
      axis 0.0 0.0 -90.0 xyz
   end
   begin
      id 15
      name LeftHandThumb1
      direction 0.000000 0.000000 1.000000
      length 3.937000
      axis 0.0 0.0 -90.0 xyz
      dof rx rz ry
   end
   begin
      id 16
      name RightShoulder
      direction -1.000000 0.000000 0.000000
      length 6.996006
      axis 0.0 0.0 90.0 xyz
      dof rx ry rz
   end
   begin
      id 17
      name RightArm
      direction -1.000000 0.000000 0.000000
      length 10.209302
      axis 0.0 0.0 90.0 xyz
      dof rx ry rz
   end
   begin
      id 18
      name RightForeArm
      direction -1.000000 0.000000 0.000000
      length 8.563163
      axis 0.0 0.0 90.0 xyz
      dof ry rz rx
   end
   begin
      id 19
      name RightHand
      direction 0.000000 0.000000 0.000000
      length 0.000000
      axis 0.0 0.0 90.0 xyz
      dof rx ry rz
   end
   begin
      id 20
      name RightHand_dum1
      direction 0.000000 0.000000 0.000000
      length 0.000000
      axis 0.0 0.0 90.0 xyz
   end
   begin
      id 21
      name RightHand_dum2
      direction -1.000000 0.000000 0.000000
      length 3.937000
      axis 0.0 0.0 90.0 xyz
   end
   begin
      id 22
      name RightHandThumb1
      direction 0.000000 0.000000 1.000000
      length 3.937000
      axis 0.0 0.0 90.0 xyz
      dof rx rz ry
   end
   begin
      id 23
      name LeftUpLeg
      direction 0.000000 -1.000000 0.000000
      length 16.346831
      axis 0.0 0.0 0.0 xyz
      dof rx ry rz
   end
   begin
      id 24
      name LeftLeg
      direction 0.000000 -1.000000 0.000000
      length 13.959795
      axis 0.0 0.0 0.0 xyz
      dof rx ry rz
   end
   begin
      id 25
      name LeftFoot
      direction 0.000000 -0.258819 0.965926
      length 5.165550
      axis 15.0 0.0 0.0 xyz
      dof rx ry rz
   end
   begin
      id 26
      name LeftToeBase
      direction 0.000000 0.000000 1.000000
      length 2.952750
      axis 0.0 0.0 0.0 xyz
      dof rx ry rz
   end
   begin
      id 27
      name RightUpLeg
      direction 0.000000 -1.000000 0.000000
      length 16.346831
      axis 0.0 0.0 0.0 xyz
      dof rx ry rz
   end
   begin
      id 28
      name RightLeg
      direction 0.000000 -1.000000 0.000000
      length 13.959795
      axis 0.0 0.0 0.0 xyz
      dof rx ry rz
   end
   begin
      id 29
      name RightFoot
      direction 0.000000 -0.258819 0.965926
      length 5.165550
      axis 15.0 0.0 0.0 xyz
      dof rx ry rz
   end
   begin
      id 30
      name RightToeBase
      direction 0.000000 0.000000 1.000000
      length 2.952750
      axis 0.0 0.0 0.0 xyz
      dof rx ry rz
   end
:hierarchy
   begin
      root Spine_dum LeftUpLeg_dum RightUpLeg_dum
      Spine_dum Spine
      LeftUpLeg_dum LeftUpLeg
      RightUpLeg_dum RightUpLeg
      Spine Spine_dum1 Spine_dum2 Spine_dum3
      Spine_dum1 Head
      Spine_dum2 LeftShoulder
      Spine_dum3 RightShoulder
      LeftShoulder LeftArm
      LeftArm LeftForeArm
      LeftForeArm LeftHand
      LeftHand LeftHand_dum1 LeftHand_dum2
      LeftHand_dum1 LeftHandThumb1
      RightShoulder RightArm
      RightArm RightForeArm
      RightForeArm RightHand
      RightHand RightHand_dum1 RightHand_dum2
      RightHand_dum1 RightHandThumb1
      LeftUpLeg LeftLeg
      LeftLeg LeftFoot
      LeftFoot LeftToeBase
      RightUpLeg RightLeg
      RightLeg RightFoot
      RightFoot RightToeBase
   end

# File created by Blade
# Date/Time:  Tue Jan 27 18:05:41 2015
# Frame Rate: 120.000 fps
#------------------------------------------------------
:FULLY-SPECIFIED
:DEGREES
1461
root -1.064322 31.903859 -5.926833 7.406906 28.820496 6.406213
Spine -8.847615 4.305075 -5.567824
Head -6.425800 -17.319871 1.292329
LeftShoulder -8.087821 14.909273 5.657641
LeftArm 24.643846 40.137717 -70.418193
LeftForeArm -3.605638 -0.000000 14.618551
LeftHand -10.544628 -0.000000 -6.547270
LeftHandThumb1 -26.253704 0.000000 33.147579
RightShoulder 3.081969 39.419411 -42.415131
RightArm 74.485156 38.422721 126.816019
RightForeArm 33.498212 -0.000000 91.812085
RightHand -6.953033 -0.000000 0.054386
RightHandThumb1 -24.326973 -0.000000 -32.862282
LeftUpLeg -2.854681 -13.605449 -1.830537
LeftLeg 1.193865 -0.000000 -0.000000
LeftFoot -12.163342 9.008869 -23.406913
LeftToeBase 8.569909 -0.000000 -0.000000
RightUpLeg 6.385920 -16.701566 -4.868227
RightLeg -3.783856 -0.000000 0.000000
RightFoot -19.228696 -22.382989 13.882435
RightToeBase 5.465019 -0.000000 -0.000000
1462
root -1.060773 31.904653 -5.929805 7.405991 28.804873 6.413706
Spine -8.856943 4.269576 -5.530556
Head -6.382145 -17.135330 1.127736
LeftShoulder -8.101645 14.955515 5.688742
LeftArm 24.612593 40.138388 -70.451557
LeftForeArm -3.672522 -0.000000 14.653749
LeftHand -10.487061 -0.000000 -6.613918
LeftHandThumb1 -26.253704 0.000000 33.147579
RightShoulder 3.041769 39.361115 -42.399833
RightArm 74.584046 38.586482 126.905641
RightForeArm 34.076679 -0.000000 91.671677
RightHand -6.885292 -0.000000 0.004902
RightHandThumb1 -24.326973 -0.000000 -32.862282
LeftUpLeg -2.856797 -13.608453 -1.848271
LeftLeg 1.201614 -0.000000 -0.000000
LeftFoot -12.162163 9.034126 -23.401659
LeftToeBase 8.565403 -0.000000 -0.000000
RightUpLeg 6.389456 -16.703207 -4.887544
RightLeg -3.790190 -0.000000 0.000000
RightFoot -19.207956 -22.364036 13.872907
RightToeBase 5.430994 -0.000000 -0.000000
1463
root -1.054795 31.905488 -5.931529 7.390403 28.783900 6.427087
Spine -8.848833 4.247705 -5.492310
Head -6.335521 -16.932424 0.953443
LeftShoulder -8.112941 14.949522 5.709751
LeftArm 24.557053 40.176065 -70.488263
LeftForeArm -3.722015 0.000000 14.645703
LeftHand -10.403004 -0.000000 -6.530895
LeftHandThumb1 -26.253704 0.000000 33.147579
RightShoulder 2.991491 39.310182 -42.378876
RightArm 74.605124 38.713472 126.877242
RightForeArm 34.367429 -0.000000 91.583010
RightHand -6.809980 -0.000000 0.437411
RightHandThumb1 -24.326973 -0.000000 -32.862282
LeftUpLeg -2.824778 -13.606431 -1.880654
LeftLeg 1.193677 -0.000000 -0.000000
LeftFoot -12.163894 9.057452 -23.391336
LeftToeBase 8.558514 -0.000000 -0.000000
RightUpLeg 6.350761 -16.968747 -4.935035
RightLeg -3.658184 -0.000000 0.000000
RightFoot -19.204954 -22.129741 13.783419
RightToeBase 5.390833 -0.000000 -0.000000
1464
root -1.051143 31.906475 -5.933286 7.385546 28.757553 6.431765
Spine -8.853190 4.216247 -5.458522
Head -6.301303 -16.725772 0.798845
LeftShoulder -8.108832 14.997905 5.744067
LeftArm 24.522816 40.166075 -70.528778
LeftForeArm -3.731967 -0.000000 14.666795
LeftHand -10.297198 -0.000000 -6.580444
LeftHandThumb1 -26.253704 0.000000 33.147579
RightShoulder 2.948322 39.282732 -42.335007
RightArm 74.575261 38.844958 126.776800
RightForeArm 34.535150 -0.000000 91.561058
RightHand -6.723969 -0.000000 0.736481
RightHandThumb1 -24.326973 -0.000000 -32.862282
LeftUpLeg -2.810802 -13.587197 -1.899284
LeftLeg 1.184044 -0.000000 -0.000000
LeftFoot -12.159733 9.076254 -23.387655
LeftToeBase 8.520779 -0.000000 -0.000000
RightUpLeg 6.350637 -17.018532 -4.955306
RightLeg -3.655210 -0.000000 0.000000
RightFoot -19.169371 -22.078809 13.744200
RightToeBase 5.378570 -0.000000 -0.000000
1465
root -1.049766 31.907147 -5.936960 7.386822 28.735855 6.440217
Spine -8.852812 4.175930 -5.424589
Head -6.262459 -16.517975 0.630713
LeftShoulder -8.091915 14.989301 5.789945
LeftArm 24.437564 40.199180 -70.583648
LeftForeArm -3.796726 0.000000 14.699989
LeftHand -10.273752 -0.000000 -6.698442
LeftHandThumb1 -26.253704 0.000000 33.147579
RightShoulder 2.892072 39.292014 -42.315644
RightArm 74.475127 38.976651 126.639610
RightForeArm 34.675180 -0.000000 91.568709
RightHand -6.411065 -0.000000 0.998958
RightHandThumb1 -24.326973 -0.000000 -32.862282
LeftUpLeg -2.814277 -13.576906 -1.915029
LeftLeg 1.186382 -0.000000 -0.000000
LeftFoot -12.147684 9.100646 -23.378500
LeftToeBase 8.545023 -0.000000 -0.000000
RightUpLeg 6.353772 -16.975428 -4.962936
RightLeg -3.678814 -0.000000 0.000000
RightFoot -19.157747 -22.135952 13.712410
RightToeBase 5.429854 -0.000000 -0.000000
1466
root -1.047113 31.907509 -5.939109 7.383082 28.699942 6.444042
Spine -8.854615 4.136778 -5.381827
Head -6.219475 -16.288338 0.464080
LeftShoulder -8.089482 14.994831 5.822110
LeftArm 24.355540 40.205294 -70.647204
LeftForeArm -3.794842 -0.000000 14.717213
LeftHand -10.243848 -0.000000 -6.689700
LeftHandThumb1 -26.253704 0.000000 33.147579
RightShoulder 2.826178 39.220097 -42.314691
RightArm 74.412750 39.007456 126.519035
RightForeArm 34.760394 -0.000000 91.617562
RightHand -5.998464 -0.000000 1.566367
RightHandThumb1 -24.326973 -0.000000 -32.862282
LeftUpLeg -2.807936 -13.559937 -1.930453
LeftLeg 1.191825 -0.000000 -0.000000
LeftFoot -12.157598 9.112598 -23.383870
LeftToeBase 8.555279 -0.000000 -0.000000
RightUpLeg 6.362127 -16.959899 -4.977717
RightLeg -3.701183 -0.000000 0.000000
RightFoot -19.137568 -22.120832 13.711782
RightToeBase 5.388671 -0.000000 -0.000000
1467
root -1.044882 31.907375 -5.941631 7.376228 28.654353 6.449278
Spine -8.858805 4.080464 -5.332942
Head -6.140902 -16.047288 0.262154
LeftShoulder -8.165268 15.113616 5.808642
LeftArm 24.508405 40.250987 -70.528414
LeftForeArm -3.825352 -0.000000 14.694097
LeftHand -10.331422 -0.000000 -6.769259
LeftHandThumb1 -26.253704 0.000000 33.147579
RightShoulder 2.801566 39.181563 -42.305742
RightArm 74.329361 39.054226 126.397856
RightForeArm 34.712355 -0.000000 91.740556
RightHand -5.959008 -0.000000 2.232716
RightHandThumb1 -24.326973 -0.000000 -32.862282
LeftUpLeg -2.793699 -13.523214 -1.949741
LeftLeg 1.184548 -0.000000 -0.000000
LeftFoot -12.157178 9.127801 -23.371980
LeftToeBase 8.559232 -0.000000 -0.000000
RightUpLeg 6.364432 -16.954954 -4.996393
RightLeg -3.709010 -0.000000 0.000000
RightFoot -19.116845 -22.091414 13.682943
RightToeBase 5.380501 -0.000000 -0.000000
1468
root -1.043140 31.907273 -5.944006 7.376685 28.604480 6.452305
Spine -8.867706 4.014735 -5.292250
Head -6.083723 -15.818555 0.129144
LeftShoulder -8.129034 15.024655 5.860901
LeftArm 24.234566 40.225363 -70.726976
LeftForeArm -3.824000 -0.000000 14.736049
LeftHand -10.372119 0.000000 -6.665214
LeftHandThumb1 -26.253704 0.000000 33.147579
RightShoulder 2.798244 39.080269 -42.294102
RightArm 74.265216 39.072172 126.214898
RightForeArm 34.720391 -0.000000 91.884276
RightHand -5.756488 0.000000 2.498028
RightHandThumb1 -24.326973 -0.000000 -32.862282
LeftUpLeg -2.789553 -13.486349 -1.962007
LeftLeg 1.179495 -0.000000 -0.000000
LeftFoot -12.156492 9.130577 -23.359046
LeftToeBase 8.506013 -0.000000 -0.000000
RightUpLeg 6.368604 -16.895531 -5.006946
RightLeg -3.743590 -0.000000 0.000000
RightFoot -19.097509 -22.109199 13.688678
RightToeBase 5.381170 -0.000000 -0.000000
1469
root -1.041007 31.907184 -5.946402 7.370907 28.548530 6.460791
Spine -8.868517 3.959918 -5.249593
Head -6.008074 -15.602264 -0.039752
LeftShoulder -8.138986 15.075551 5.866173
LeftArm 24.219071 40.219088 -70.736359
LeftForeArm -3.813280 -0.000000 14.733727
LeftHand -10.406680 -0.000000 -6.692516
LeftHandThumb1 -26.253704 0.000000 33.147579
RightShoulder 2.793255 39.033631 -42.263682
RightArm 74.125903 39.062379 125.955107
RightForeArm 34.664151 -0.000000 92.033407
RightHand -5.482599 -0.000000 2.926301
RightHandThumb1 -24.326973 -0.000000 -32.862282
LeftUpLeg -2.778107 -13.450279 -1.984109
LeftLeg 1.184691 -0.000000 -0.000000
LeftFoot -12.166239 9.141892 -23.370446
LeftToeBase 8.552230 -0.000000 -0.000000
RightUpLeg 6.368894 -16.887970 -5.028625
RightLeg -3.749199 -0.000000 0.000000
RightFoot -19.092301 -22.072441 13.669237
RightToeBase 5.416663 -0.000000 -0.000000
1470
root -1.039003 31.906729 -5.948772 7.362998 28.488687 6.464938
Spine -8.868610 3.911987 -5.204156
Head -5.932009 -15.412075 -0.196805
LeftShoulder -8.151190 15.100532 5.863866
LeftArm 24.200556 40.233355 -70.738243
LeftForeArm -3.846626 -0.000000 14.707418
LeftHand -10.423442 0.000000 -6.608802
LeftHandThumb1 -26.253704 0.000000 33.147579
RightShoulder 2.780544 38.988242 -42.248667
RightArm 73.982888 39.043840 125.703960
RightForeArm 34.564008 -0.000000 92.240643
RightHand -5.529016 -0.000000 3.132177
RightHandThumb1 -24.326973 -0.000000 -32.862282
LeftUpLeg -2.761625 -13.426921 -2.004076
LeftLeg 1.172495 -0.000000 -0.000000
LeftFoot -12.175263 9.196235 -23.354352
LeftToeBase 8.454564 -0.000000 -0.000000
RightUpLeg 6.366775 -16.862726 -5.044748
RightLeg -3.753777 -0.000000 0.000000
RightFoot -19.074524 -22.065597 13.626877
RightToeBase 5.390565 -0.000000 -0.000000
1471
root -1.032841 31.906382 -5.951311 7.349644 28.405125 6.489258
Spine -8.860793 3.900315 -5.176938
Head -5.843652 -15.225167 -0.350801
LeftShoulder -8.152145 15.166580 5.853674
LeftArm 24.216787 40.203175 -70.735032
LeftForeArm -3.805205 0.000000 14.679464
LeftHand -10.414145 -0.000000 -6.616337
LeftHandThumb1 -26.253704 0.000000 33.147579
RightShoulder 2.785027 38.970655 -42.226303
RightArm 73.790142 39.053469 125.430744
RightForeArm 34.525589 -0.000000 92.502478
RightHand -5.523269 -0.000000 3.565613
RightHandThumb1 -24.326973 -0.000000 -32.862282
LeftUpLeg -2.671170 -13.604101 -2.030333
LeftLeg 1.048142 -0.000000 -0.000000
LeftFoot -12.222746 9.349340 -23.571699
LeftToeBase 8.511324 -0.000000 -0.000000
RightUpLeg 6.396104 -16.804201 -5.098302
RightLeg -3.788880 -0.000000 0.000000
RightFoot -19.066196 -22.018416 13.643883
RightToeBase 5.409031 -0.000000 -0.000000
1472
root -1.031274 31.905502 -5.953264 7.336032 28.341965 6.493670
Spine -8.859593 3.864003 -5.137348
Head -5.751669 -15.046890 -0.496448
LeftShoulder -8.170951 15.131357 5.856686
LeftArm 24.159599 40.252962 -70.756562
LeftForeArm -3.816502 -0.000000 14.630078
LeftHand -10.391242 -0.000000 -6.688142
LeftHandThumb1 -26.253704 0.000000 33.147579
RightShoulder 2.793921 38.942051 -42.213656
RightArm 73.626603 39.057173 125.176449
RightForeArm 34.459514 -0.000000 92.747739
RightHand -5.438002 -0.000000 3.610226
RightHandThumb1 -24.326973 -0.000000 -32.862282
LeftUpLeg -2.648254 -13.577349 -2.044507
LeftLeg 1.039773 -0.000000 -0.000000
LeftFoot -12.230597 9.354686 -23.565082
LeftToeBase 8.568371 -0.000000 -0.000000
RightUpLeg 6.412649 -16.752760 -5.116020
RightLeg -3.821494 -0.000000 0.000000
RightFoot -19.051885 -22.012817 13.630809
RightToeBase 5.411857 -0.000000 -0.000000
1473
root -1.029530 31.905066 -5.955982 7.319696 28.269335 6.507097
Spine -8.851247 3.859834 -5.110189
Head -5.649080 -14.919080 -0.642191
LeftShoulder -8.161259 15.143410 5.850385
LeftArm 24.170902 40.276399 -70.733711
LeftForeArm -3.815410 -0.000000 14.577944
LeftHand -10.366985 0.000000 -6.831543
LeftHandThumb1 -26.253704 0.000000 33.147579
RightShoulder 2.808029 38.887328 -42.201119
RightArm 73.500272 39.042964 124.954899
RightForeArm 34.269459 -0.000000 93.020593
RightHand -5.394430 -0.000000 3.659942
RightHandThumb1 -24.326973 -0.000000 -32.862282
LeftUpLeg -2.623005 -13.545484 -2.075825
LeftLeg 1.033812 -0.000000 -0.000000
LeftFoot -12.226671 9.398653 -23.538047
LeftToeBase 8.469522 -0.000000 -0.000000
RightUpLeg 6.403179 -16.798279 -5.151500
RightLeg -3.787944 -0.000000 0.000000
RightFoot -19.044615 -21.928680 13.577998
RightToeBase 5.397974 -0.000000 -0.000000
